<svg xmlns="http://www.w3.org/2000/svg" xmlns:xlink="http://www.w3.org/1999/xlink" viewBox="0 0 957.15 957.15"><defs><style>.cls-1{isolation:isolate;}.cls-2{fill:#008bd2;mix-blend-mode:darken;}.cls-3{mix-blend-mode:multiply;fill:url(#Degradado_sin_nombre_17);}.cls-4{fill:#fff;}.cls-5{fill:#52a3db;}</style><linearGradient id="Degradado_sin_nombre_17" x1="367.72" y1="345.51" x2="803.35" y2="757.33" gradientUnits="userSpaceOnUse"><stop offset="0" stop-opacity="0.2"/><stop offset="0.02" stop-color="#0f0f0f" stop-opacity="0.25"/><stop offset="0.09" stop-color="#474747" stop-opacity="0.42"/><stop offset="0.16" stop-color="#787878" stop-opacity="0.58"/><stop offset="0.24" stop-color="#a2a2a2" stop-opacity="0.71"/><stop offset="0.31" stop-color="#c3c3c3" stop-opacity="0.81"/><stop offset="0.39" stop-color="#dedede" stop-opacity="0.9"/><stop offset="0.47" stop-color="#f0f0f0" stop-opacity="0.95"/><stop offset="0.55" stop-color="#fbfbfb" stop-opacity="0.99"/><stop offset="0.64" stop-color="#fff"/></linearGradient></defs><title>icon</title><g class="cls-1"><g id="Capa_1" data-name="Capa 1"><circle class="cls-2" cx="478.57" cy="478.57" r="478.57"/><path class="cls-3" d="M1070.6,759.46a24.09,24.09,0,0,0-2.19-2.09,23.36,23.36,0,0,0-3.06-3.07,24.06,24.06,0,0,0-3.07-3.07,2659.26,2659.26,0,0,0-6.14-6.13,23.36,23.36,0,0,0-3.06-3.07A24.73,24.73,0,0,0,1050,739a24.06,24.06,0,0,0-3.07-3.07,24.06,24.06,0,0,0-3.07-3.07,23.91,23.91,0,0,0-3.06-3.06,24.73,24.73,0,0,0-3.07-3.07,24.06,24.06,0,0,0-3.07-3.07,24.06,24.06,0,0,0-3.07-3.07,1328.55,1328.55,0,0,1-6.13-6.13,24.06,24.06,0,0,0-3.07-3.07,2659.26,2659.26,0,0,0-6.14-6.13,23.36,23.36,0,0,0-3.06-3.07,24.73,24.73,0,0,0-3.07-3.07,24.06,24.06,0,0,0-3.07-3.07,1328.55,1328.55,0,0,1-6.13-6.13,24.73,24.73,0,0,0-3.07-3.07,24.06,24.06,0,0,0-3.07-3.07,24.06,24.06,0,0,0-3.07-3.07,1328.55,1328.55,0,0,1-6.13-6.13,24.06,24.06,0,0,0-3.07-3.07,2659.26,2659.26,0,0,0-6.14-6.13,23.36,23.36,0,0,0-3.06-3.07,24.06,24.06,0,0,0-3.07-3.07,2659.26,2659.26,0,0,0-6.14-6.13,23.36,23.36,0,0,0-3.06-3.07,24.73,24.73,0,0,0-3.07-3.07,24.06,24.06,0,0,0-3.07-3.07,24.06,24.06,0,0,0-3.07-3.07,1328.55,1328.55,0,0,1-6.13-6.13,24.06,24.06,0,0,0-3.07-3.07,24.06,24.06,0,0,0-3.07-3.07,1328.55,1328.55,0,0,1-6.13-6.13,24.06,24.06,0,0,0-3.07-3.07,2659.26,2659.26,0,0,0-6.14-6.13,23.36,23.36,0,0,0-3.06-3.07,24.06,24.06,0,0,0-3.07-3.07A24.06,24.06,0,0,0,915,604a24.06,24.06,0,0,0-3.07-3.07,23.91,23.91,0,0,0-3.06-3.06,24.73,24.73,0,0,0-3.07-3.07,24.06,24.06,0,0,0-3.07-3.07,24.06,24.06,0,0,0-3.07-3.07,1328.55,1328.55,0,0,1-6.13-6.13,24.06,24.06,0,0,0-3.07-3.07,2659.26,2659.26,0,0,0-6.14-6.13,23.36,23.36,0,0,0-3.06-3.07,24.06,24.06,0,0,0-3.07-3.07,24.06,24.06,0,0,0-3.07-3.07A1328.55,1328.55,0,0,1,869,558,24.73,24.73,0,0,0,866,554.9a24.06,24.06,0,0,0-3.07-3.07,24.06,24.06,0,0,0-3.07-3.07,1328.55,1328.55,0,0,1-6.13-6.13,24.06,24.06,0,0,0-3.07-3.07,24.06,24.06,0,0,0-3.07-3.07,1328.55,1328.55,0,0,1-6.13-6.13,24.06,24.06,0,0,0-3.07-3.07,2659.26,2659.26,0,0,0-6.14-6.13,23.36,23.36,0,0,0-3.06-3.07,24.73,24.73,0,0,0-3.07-3.07A24.06,24.06,0,0,0,823,512a24.06,24.06,0,0,0-3.07-3.07,1328.55,1328.55,0,0,1-6.13-6.13,24.06,24.06,0,0,0-3.07-3.07,24.06,24.06,0,0,0-3.07-3.07,1328.55,1328.55,0,0,1-6.13-6.13,24.06,24.06,0,0,0-3.07-3.07,2659.26,2659.26,0,0,0-6.14-6.13,23.36,23.36,0,0,0-3.06-3.07,24.06,24.06,0,0,0-3.07-3.07,24.06,24.06,0,0,0-3.07-3.07,24.06,24.06,0,0,0-3.07-3.07,23.91,23.91,0,0,0-3.06-3.06,24.73,24.73,0,0,0-3.07-3.07,24.06,24.06,0,0,0-3.07-3.07,24.06,24.06,0,0,0-3.07-3.07,1328.55,1328.55,0,0,1-6.13-6.13,24.06,24.06,0,0,0-3.07-3.07,2659.26,2659.26,0,0,0-6.14-6.13,23.36,23.36,0,0,0-3.06-3.07,24.06,24.06,0,0,0-3.07-3.07,2659.26,2659.26,0,0,0-6.14-6.13,23.36,23.36,0,0,0-3.06-3.07A24.73,24.73,0,0,0,734,423a24.06,24.06,0,0,0-3.07-3.07,24.06,24.06,0,0,0-3.07-3.07,1328.55,1328.55,0,0,1-6.13-6.13,24.06,24.06,0,0,0-3.07-3.07,24.06,24.06,0,0,0-3.07-3.07,1328.55,1328.55,0,0,1-6.13-6.13,24.06,24.06,0,0,0-3.07-3.07,2659.26,2659.26,0,0,0-6.14-6.13,23.36,23.36,0,0,0-3.06-3.07,24.73,24.73,0,0,0-3.07-3.07,24.06,24.06,0,0,0-3.07-3.07A24.06,24.06,0,0,0,688,377a1328.55,1328.55,0,0,1-6.13-6.13,24.06,24.06,0,0,0-3.07-3.07,24.06,24.06,0,0,0-3.07-3.07,1328.55,1328.55,0,0,1-6.13-6.13,24.06,24.06,0,0,0-3.07-3.07,2659.26,2659.26,0,0,0-6.14-6.13,23.36,23.36,0,0,0-3.06-3.07,24.06,24.06,0,0,0-3.07-3.07,24.06,24.06,0,0,0-3.07-3.07,1328.55,1328.55,0,0,1-6.13-6.13A24.73,24.73,0,0,0,642,331a24.06,24.06,0,0,0-3.07-3.07,24.06,24.06,0,0,0-3.07-3.07,1328.55,1328.55,0,0,1-6.13-6.13,24.06,24.06,0,0,0-3.07-3.07,49.27,49.27,0,0,0-13.28-10.27L414.76,233.06A24,24,0,0,0,384,247.38l-93.16,256a23.94,23.94,0,0,0,7.18,26.59,24.06,24.06,0,0,0,3.07,3.07,24.06,24.06,0,0,0,3.07,3.07,23.91,23.91,0,0,0,3.06,3.06,24.06,24.06,0,0,0,3.07,3.07,24.06,24.06,0,0,0,3.07,3.07,24.06,24.06,0,0,0,3.07,3.07,22.76,22.76,0,0,0,3.07,3.06,23.36,23.36,0,0,0,3.06,3.07,24.06,24.06,0,0,0,3.07,3.07,24.06,24.06,0,0,0,3.07,3.07,23.43,23.43,0,0,0,3.07,3.07,23.91,23.91,0,0,0,3.06,3.06,23.43,23.43,0,0,0,3.07,3.07,24.06,24.06,0,0,0,3.07,3.07,24.06,24.06,0,0,0,3.07,3.07,23.91,23.91,0,0,0,3.06,3.06,23.43,23.43,0,0,0,3.07,3.07,24.06,24.06,0,0,0,3.07,3.07,24.06,24.06,0,0,0,3.07,3.07,23.91,23.91,0,0,0,3.06,3.06,24.06,24.06,0,0,0,3.07,3.07,24.06,24.06,0,0,0,3.07,3.07,24.06,24.06,0,0,0,3.07,3.07,23.43,23.43,0,0,0,3.07,3.07,23.91,23.91,0,0,0,3.06,3.06,24.06,24.06,0,0,0,3.07,3.07,24.06,24.06,0,0,0,3.07,3.07,23.43,23.43,0,0,0,3.07,3.07A23.91,23.91,0,0,0,387,618.9a23.43,23.43,0,0,0,3.07,3.07,24.06,24.06,0,0,0,3.07,3.07,24.06,24.06,0,0,0,3.07,3.07,23.91,23.91,0,0,0,3.06,3.06,23.43,23.43,0,0,0,3.07,3.07,24.06,24.06,0,0,0,3.07,3.07,24.06,24.06,0,0,0,3.07,3.07,22.76,22.76,0,0,0,3.07,3.06,23.36,23.36,0,0,0,3.06,3.07,24.06,24.06,0,0,0,3.07,3.07,24.06,24.06,0,0,0,3.07,3.07,23.43,23.43,0,0,0,3.07,3.07,23.91,23.91,0,0,0,3.06,3.06,23.43,23.43,0,0,0,3.07,3.07,24.06,24.06,0,0,0,3.07,3.07,24.06,24.06,0,0,0,3.07,3.07,23.91,23.91,0,0,0,3.06,3.06,24.06,24.06,0,0,0,3.07,3.07,24.06,24.06,0,0,0,3.07,3.07,24.06,24.06,0,0,0,3.07,3.07,1328.55,1328.55,0,0,1,6.13,6.13,24.06,24.06,0,0,0,3.07,3.07,24.06,24.06,0,0,0,3.07,3.07,23.43,23.43,0,0,0,3.07,3.07,23.91,23.91,0,0,0,3.06,3.06,23.43,23.43,0,0,0,3.07,3.07,24.06,24.06,0,0,0,3.07,3.07,24.06,24.06,0,0,0,3.07,3.07,23.91,23.91,0,0,0,3.06,3.06,23.43,23.43,0,0,0,3.07,3.07,24.06,24.06,0,0,0,3.07,3.07,24.06,24.06,0,0,0,3.07,3.07,1328.55,1328.55,0,0,1,6.13,6.13,24.06,24.06,0,0,0,3.07,3.07,24.06,24.06,0,0,0,3.07,3.07,23.43,23.43,0,0,0,3.07,3.07,23.91,23.91,0,0,0,3.06,3.06,24.06,24.06,0,0,0,3.07,3.07,24.06,24.06,0,0,0,3.07,3.07,23.43,23.43,0,0,0,3.07,3.07,23.91,23.91,0,0,0,3.06,3.06,23.43,23.43,0,0,0,3.07,3.07,24.06,24.06,0,0,0,3.07,3.07,24.06,24.06,0,0,0,3.07,3.07,23.91,23.91,0,0,0,3.06,3.06,23.43,23.43,0,0,0,3.07,3.07,24.06,24.06,0,0,0,3.07,3.07,24.06,24.06,0,0,0,3.07,3.07,22.76,22.76,0,0,0,3.07,3.06,2659.26,2659.26,0,0,0,6.13,6.14,24.06,24.06,0,0,0,3.07,3.07,23.43,23.43,0,0,0,3.07,3.07,23.91,23.91,0,0,0,3.06,3.06,23.43,23.43,0,0,0,3.07,3.07,24.06,24.06,0,0,0,3.07,3.07A24.06,24.06,0,0,0,568,799.9a23.91,23.91,0,0,0,3.06,3.06,23.43,23.43,0,0,0,3.07,3.07,24.06,24.06,0,0,0,3.07,3.07,24.06,24.06,0,0,0,3.07,3.07,23.91,23.91,0,0,0,3.06,3.06,24.06,24.06,0,0,0,3.07,3.07,24.06,24.06,0,0,0,3.07,3.07,24.06,24.06,0,0,0,3.07,3.07,23.43,23.43,0,0,0,3.07,3.07,23.91,23.91,0,0,0,3.06,3.06,24.06,24.06,0,0,0,3.07,3.07,24.06,24.06,0,0,0,3.07,3.07,24.06,24.06,0,0,0,3.07,3.07,23.91,23.91,0,0,0,3.06,3.06,23.43,23.43,0,0,0,3.07,3.07A24.06,24.06,0,0,0,617.1,849a24.06,24.06,0,0,0,3.07,3.07,1328.55,1328.55,0,0,1,6.13,6.13,24.06,24.06,0,0,0,3.07,3.07,24.06,24.06,0,0,0,3.07,3.07,23.43,23.43,0,0,0,3.07,3.07,23.91,23.91,0,0,0,3.06,3.06,24.06,24.06,0,0,0,3.07,3.07,24.06,24.06,0,0,0,3.07,3.07,23.43,23.43,0,0,0,3.07,3.07,23.91,23.91,0,0,0,3.06,3.06,23.43,23.43,0,0,0,3.07,3.07,24.06,24.06,0,0,0,3.07,3.07,24.06,24.06,0,0,0,3.07,3.07,23.91,23.91,0,0,0,3.06,3.06,23.43,23.43,0,0,0,3.07,3.07,24.06,24.06,0,0,0,3.07,3.07,24.06,24.06,0,0,0,3.07,3.07,22.76,22.76,0,0,0,3.07,3.06,23.36,23.36,0,0,0,3.06,3.07,24.06,24.06,0,0,0,3.07,3.07,24.06,24.06,0,0,0,3.07,3.07,23.43,23.43,0,0,0,3.07,3.07,23.91,23.91,0,0,0,3.06,3.06,23.43,23.43,0,0,0,3.07,3.07,24.06,24.06,0,0,0,3.07,3.07,24.06,24.06,0,0,0,3.07,3.07,23.91,23.91,0,0,0,3.06,3.06,23.43,23.43,0,0,0,3.07,3.07,24.06,24.06,0,0,0,3.07,3.07,24.06,24.06,0,0,0,3.07,3.07,23.91,23.91,0,0,0,3.06,3.06,24.06,24.06,0,0,0,3.07,3.07,24.06,24.06,0,0,0,3.07,3.07,24.06,24.06,0,0,0,3.07,3.07,22.76,22.76,0,0,0,3.07,3.06,23.36,23.36,0,0,0,3.06,3.07,24.06,24.06,0,0,0,3.07,3.07,24.06,24.06,0,0,0,3.07,3.07,24.06,24.06,0,0,0,3.07,3.07,23.91,23.91,0,0,0,3.06,3.06,23.43,23.43,0,0,0,3.07,3.07,24.06,24.06,0,0,0,3.07,3.07c.35.42.74.83,1.12,1.23C885.91,956.53,1001.44,873.62,1070.6,759.46Z" transform="translate(-180.85 -33.86)"/><rect class="cls-4" x="328.09" y="261.11" width="259.32" height="320.34" rx="14.08" transform="translate(-9.16 -165.01) rotate(20)"/><rect class="cls-5" x="404.47" y="318.9" width="108.23" height="16.16" rx="3.67" transform="translate(-41.36 -170.98) rotate(20)"/><rect class="cls-5" x="388.3" y="372.42" width="138.25" height="16.16" rx="3.67" transform="translate(-23.12 -167.36) rotate(20)"/><rect class="cls-5" x="372.22" y="416.61" width="138.25" height="16.16" rx="3.67" transform="translate(-8.98 -159.19) rotate(20)"/><rect class="cls-5" x="355.78" y="456.77" width="108.23" height="16.16" rx="3.67" transform="translate(2.86 -146.02) rotate(20)"/><path class="cls-4" d="M595.19,514.57a11,11,0,0,1,3.81-8.64,16.2,16.2,0,0,1,19.78,0,11.71,11.71,0,0,1,0,17.29,16.2,16.2,0,0,1-19.78,0A11,11,0,0,1,595.19,514.57Zm26,99.09H595.86V534h25.35Z" transform="translate(-180.85 -33.86)"/><path class="cls-4" d="M637.51,613.66V506.81h34.15a49.93,49.93,0,0,1,25.27,6.42,45,45,0,0,1,17.52,18.12,55.1,55.1,0,0,1,6.37,26.24v4.92a55.45,55.45,0,0,1-6.15,26.31A45.23,45.23,0,0,1,697.33,607a48.92,48.92,0,0,1-24.94,6.64Zm25.36-86.93v67H672q11.31,0,17.38-7.87t6.08-23.4v-4.62q0-15.45-6.08-23.29t-17.68-7.83Z" transform="translate(-180.85 -33.86)"/><path class="cls-4" d="M731.27,573.91a46.86,46.86,0,0,1,4.61-21.13,33,33,0,0,1,13.26-14.25,40,40,0,0,1,20.3-5q17.79,0,28,11t10.26,30v.88q0,18.54-10.29,29.41t-27.88,10.88q-16.92,0-27.18-10.15t-11.06-27.5Zm23.89,1.54q0,11.06,3.46,16.2t10.23,5.15q13.26,0,13.55-20.39v-2.5q0-21.43-13.7-21.43-12.44,0-13.47,18.48Z" transform="translate(-180.85 -33.86)"/><path class="cls-4" d="M850.32,596.81q5,0,7.77-2.72t2.68-7.6H883.1q0,12.59-9,20.63t-23.21,8q-16.67,0-26.28-10.45t-9.6-29v-1a46.6,46.6,0,0,1,4.27-20.46,31.12,31.12,0,0,1,12.33-13.63q8.05-4.77,19.07-4.77,14.91,0,23.67,8.27t8.76,22.39H860.77q0-5.93-2.89-9.11a10,10,0,0,0-7.77-3.18q-9.25,0-10.81,11.8a82.85,82.85,0,0,0-.5,10.31q0,11.52,2.76,16T850.32,596.81Z" transform="translate(-180.85 -33.86)"/></g></g></svg>