<?xml version="1.0" encoding="utf-8"?>
<!-- Generator: Adobe Illustrator 23.1.0, SVG Export Plug-In . SVG Version: 6.00 Build 0)  -->
<svg version="1.1" id="Capa_1" xmlns="http://www.w3.org/2000/svg" xmlns:xlink="http://www.w3.org/1999/xlink" x="0px" y="0px"
	 viewBox="0 0 138 23" style="enable-background:new 0 0 138 23;" xml:space="preserve">
<style type="text/css">
	.st0{fill:#FFFFFF;}
	.st1{fill:#53A2DA;}
</style>
<g>
	<path class="st0" d="M50.3,21.7l-11.7-4.3c-0.4-0.1-0.6-0.6-0.5-1l5.4-15.1c0.1-0.4,0.6-0.6,1-0.5l11.7,4.3c0.4,0.1,0.6,0.6,0.5,1
		l-5.4,15.1C51.2,21.6,50.7,21.8,50.3,21.7z"/>
	<path class="st1" d="M49.9,7.4l-5.1-1.9c-0.1,0-0.2-0.2-0.1-0.3l0.2-0.5c0-0.1,0.2-0.2,0.3-0.1l5.1,1.9c0.1,0,0.2,0.2,0.1,0.3
		l-0.2,0.5C50.1,7.4,50,7.5,49.9,7.4z"/>
	<path class="st1" d="M50.6,10.6L44,8.2c-0.1,0-0.2-0.2-0.1-0.3L44,7.5c0-0.1,0.2-0.2,0.3-0.1l6.6,2.5C51,9.8,51,10,51,10.1
		l-0.2,0.5C50.8,10.6,50.7,10.7,50.6,10.6z"/>
	<path class="st1" d="M49.7,13.1l-6.6-2.5c-0.1,0-0.2-0.2-0.1-0.3l0.2-0.5c0-0.1,0.2-0.2,0.3-0.1l6.6,2.5c0.1,0,0.2,0.2,0.1,0.3
		L50,12.9C49.9,13,49.8,13.1,49.7,13.1z"/>
	<path class="st1" d="M47.3,15l-5.1-1.9c-0.1,0-0.2-0.2-0.1-0.3l0.2-0.5c0-0.1,0.2-0.2,0.3-0.1l5.1,1.9c0.1,0,0.2,0.2,0.1,0.3
		l-0.2,0.5C47.5,15,47.4,15,47.3,15z"/>
</g>
<g>
	<path class="st0" d="M59.6,5c0-0.5,0.2-0.9,0.6-1.3c0.4-0.3,0.9-0.5,1.5-0.5s1.1,0.2,1.5,0.5C63.5,4,63.7,4.5,63.7,5
		c0,0.5-0.2,1-0.6,1.3c-0.4,0.3-0.9,0.5-1.5,0.5s-1.1-0.2-1.5-0.5C59.8,5.9,59.6,5.5,59.6,5z M63.5,19.7h-3.8V7.9h3.8V19.7z"/>
	<path class="st0" d="M65.9,19.7V3.8H71c1.4,0,2.6,0.3,3.8,1c1.1,0.6,2,1.5,2.6,2.7c0.6,1.2,0.9,2.5,0.9,3.9v0.7
		c0,1.5-0.3,2.8-0.9,3.9c-0.6,1.2-1.5,2.1-2.6,2.7c-1.1,0.7-2.3,1-3.7,1H65.9z M69.7,6.8v10H71c1.1,0,2-0.4,2.6-1.2
		c0.6-0.8,0.9-1.9,0.9-3.5v-0.7c0-1.5-0.3-2.7-0.9-3.5C73,7.2,72.1,6.8,71,6.8H69.7z"/>
	<path class="st0" d="M79.8,13.8c0-1.2,0.2-2.2,0.7-3.1c0.5-0.9,1.1-1.6,2-2.1c0.9-0.5,1.9-0.7,3-0.7c1.8,0,3.2,0.5,4.2,1.6
		c1,1.1,1.5,2.6,1.5,4.5V14c0,1.8-0.5,3.3-1.5,4.4c-1,1.1-2.4,1.6-4.1,1.6c-1.7,0-3-0.5-4-1.5c-1-1-1.6-2.4-1.6-4.1L79.8,13.8z
		 M83.4,14c0,1.1,0.2,1.9,0.5,2.4c0.3,0.5,0.8,0.8,1.5,0.8c1.3,0,2-1,2-3v-0.4c0-2.1-0.7-3.2-2-3.2c-1.2,0-1.9,0.9-2,2.7L83.4,14z"
		/>
	<path class="st0" d="M97.5,17.2c0.5,0,0.9-0.1,1.2-0.4c0.3-0.3,0.4-0.6,0.4-1.1h3.3c0,1.2-0.4,2.3-1.3,3.1c-0.9,0.8-2,1.2-3.4,1.2
		c-1.7,0-3-0.5-3.9-1.6s-1.4-2.5-1.4-4.3v-0.1c0-1.1,0.2-2.2,0.6-3c0.4-0.9,1-1.6,1.8-2c0.8-0.5,1.7-0.7,2.8-0.7
		c1.5,0,2.6,0.4,3.5,1.2c0.9,0.8,1.3,1.9,1.3,3.3h-3.3c0-0.6-0.1-1-0.4-1.4c-0.3-0.3-0.7-0.5-1.2-0.5c-0.9,0-1.5,0.6-1.6,1.8
		c0,0.4-0.1,0.9-0.1,1.5c0,1.1,0.1,1.9,0.4,2.4C96.5,17,96.9,17.2,97.5,17.2z"/>
</g>
</svg>
